<?xml version="1.0" encoding="UTF-8" standalone="no"?>
<svg
   xmlns:dc="http://purl.org/dc/elements/1.1/"
   xmlns:cc="http://creativecommons.org/ns#"
   xmlns:rdf="http://www.w3.org/1999/02/22-rdf-syntax-ns#"
   xmlns:svg="http://www.w3.org/2000/svg"
   xmlns="http://www.w3.org/2000/svg"
   version="1.1"
   id="svg2"
   viewBox="0 0 287.33855 51.463351"
   height="14.524101mm"
   width="81.093323mm">
  <defs
     id="defs4" />
  <metadata
     id="metadata7">
    <rdf:RDF>
      <cc:Work
         rdf:about="">
        <dc:format>image/svg+xml</dc:format>
        <dc:type
           rdf:resource="http://purl.org/dc/dcmitype/StillImage" />
        <dc:title></dc:title>
      </cc:Work>
    </rdf:RDF>
  </metadata>
  <g
     transform="translate(-216.93891,-43.357422)"
     id="layer1">
    <path
       id="path4188"
       d="m 225.25755,73.210393 c -4.58917,-11.85938 -8.33254,-22.02001 -8.3186,-22.5792 0.0139,-0.55918 1.79995,-0.84043 3.96889,-0.625 3.80069,0.37751 4.14916,0.9237 9.62051,15.0792 3.12234,8.07812 6.04594,14.6875 6.49691,14.6875 0.45096,0 3.01235,-5.90363 5.69199,-13.11917 2.67963,-7.21555 5.15331,-13.11822 5.49706,-13.11706 0.34375,0.001 3.10813,6.29045 6.14307,13.97621 l 5.51808,13.97412 5.22005,-13.66955 c 2.87103,-7.51825 5.57337,-14.65393 6.0052,-15.85705 0.9028,-2.51533 4.6136,-2.98625 4.6136,-0.58549 0,3.55453 -16.01243,42.77299 -17.4637,42.77299 -0.85793,0 -3.61508,-5.16363 -6.12699,-11.47473 -2.51191,-6.3111 -4.86084,-11.76846 -5.21984,-12.12747 -0.359,-0.359 -2.79005,4.94525 -5.40233,11.78723 -2.61228,6.84199 -5.45843,12.43997 -6.32478,12.43997 -0.88356,0 -5.23879,-9.46754 -9.91912,-21.5625 z"
       style="fill:#000000" />
    <path
       id="path4186"
       d="m 294.75,59.773438 c -9.664,0 -14.9182,4.508493 -17.10938,14.683593 -1.53276,7.11761 3.8362,16.983747 10.57422,19.435547 7.71301,2.80657 18.82255,-2.67468 21.64844,-10.68164 0.97928,-2.774691 -2.65238,-3.036309 -3.71484,-0.267579 -0.94605,2.46538 -6.95203,5.580079 -10.76172,5.580079 -4.63323,0 -10.92188,-7.245262 -10.92188,-12.582032 0,-0.64692 5.58027,-1.167968 12.5,-1.167968 13.75381,0 14.30204,-0.387039 10.63086,-7.486329 -2.68309,-5.18851 -6.6573,-7.513671 -12.8457,-7.513671 z m -2.32031,3.265624 c 2.72888,0.104431 5.4798,1.946832 6.86914,4.996094 1.35767,2.98016 1.34226,2.988282 -6.61914,2.988282 -7.44876,0 -7.93644,-0.171719 -7.30664,-2.580079 0.37115,-1.41928 1.93793,-3.409211 3.48047,-4.419921 1.10039,-0.721004 2.33576,-1.031844 3.57617,-0.984376 z"
       style="fill:#000000" />
    <path
       id="path4182"
       d="m 323.21484,43.357422 -3.4375,0.394531 -3.4375,0.396485 L 316,67.634766 l -0.3418,23.486328 4.0918,1.777344 c 13.17377,5.7246 27.21484,-3.165056 27.21484,-17.228516 0,-6.69204 -2.52222,-12.650905 -6.18164,-14.609375 -3.57867,-1.91524 -11.62789,-1.557337 -14.79101,0.658203 l -2.77735,1.945312 0,-10.152343 0,-10.154297 z m 6.76954,21.949219 c 4.19945,-0.349061 9.48046,5.713993 9.48046,11.30664 0,5.35451 -2.80949,11.318327 -6.18164,13.123047 -2.98256,1.59618 -5.0606,1.578197 -7.88086,-0.06445 -1.78852,-1.04172 -2.1875,-3.058404 -2.1875,-11.058594 0,-10.16381 0.60935,-11.51437 5.94532,-13.15039 0.26847,-0.08231 0.54425,-0.13298 0.82422,-0.15625 z"
       style="fill:#000000" />
    <path
       id="path4178"
       d="m 364.67465,92.090733 c -16.08493,-7.96184 -16.2389,-31.64068 -0.25874,-39.79315 5.8815,-3.00052 17.26764,-3.38926 22.29798,-0.76129 1.85648,0.96988 4.94416,3.4141 6.86151,5.43162 3.02972,3.188 3.24126,3.87141 1.61589,5.22035 -1.55687,1.29207 -2.71102,0.66827 -6.88847,-3.72314 -4.77134,-5.01573 -5.30056,-5.24346 -10.75621,-4.62853 -19.94405,2.24798 -20.97621,32.9351 -1.23234,36.63907 4.95279,0.92915 10.58499,-1.68375 14.13545,-6.55774 2.17418,-2.98467 2.75953,-3.20535 4.55334,-1.71661 1.8806,1.56076 1.75726,2.0289 -1.42766,5.41891 -7.08177,7.53779 -18.98445,9.37895 -28.90075,4.47051 z"
       style="fill:#e37000;fill-opacity:1" />
    <path
       id="path4176"
       d="m 420.54883,59.791016 c -8.15892,0.0224 -11.99159,1.819116 -15.73438,7.373046 -5.74723,8.528311 -2.75311,21.133604 6.05078,25.470704 5.73182,2.82369 11.70753,2.657621 17.29102,-0.480469 6.24995,-3.51267 8.80859,-8.203883 8.80859,-16.158203 0,-5.90323 -0.45741,-6.974994 -4.85351,-11.371094 -4.43965,-4.43964 -5.42436,-4.850884 -11.5625,-4.833984 z m -1.70117,3.24414 c 8.25319,0.231588 14.4997,17.006063 6.69922,25.378906 -3.47295,3.727761 -7.78912,3.288116 -11.54688,-1.177734 -5.86543,-6.97066 -5.80269,-17.803383 0.13086,-22.470703 1.58946,-1.250275 3.18843,-1.773355 4.7168,-1.730469 z"
       style="fill:#e37000;fill-opacity:1" />
    <path
       id="path4172"
       d="m 443.21431,76.647893 0,-16.875 3.75,0 c 2.5,0 3.75,0.625 3.75,1.875 0,2.33296 1.1788,2.32207 4.30141,-0.0397 3.65311,-2.76308 11.1039,-2.33973 13.94235,0.79218 1.98543,2.1907 2.45106,4.99567 2.8013,16.875 l 0.42008,14.24757 -3.85758,0 -3.85756,0 0,-11.16863 c 0,-6.14274 -0.54858,-12.61149 -1.21906,-14.375 -1.42044,-3.73603 -5.47105,-4.25955 -9.7528,-1.26049 -2.55412,1.78897 -2.77814,2.94812 -2.77814,14.375 l 0,12.42912 -3.75,0 -3.75,0 0,-16.875 z"
       style="fill:#e37000;fill-opacity:1" />
    <path
       id="path4147"
       d="m 481.96431,78.522893 0,-15 -3.75,0 c -2.5,0 -3.75,-0.625 -3.75,-1.875 0,-1.25 1.25,-1.875 3.75,-1.875 3.46774,0 3.75,-0.33654 3.75,-4.47115 0,-6.74758 5.52706,-11.77885 12.93956,-11.77885 6.05076,0 9.96735,2.56449 9.29969,6.08922 -0.49949,2.6369 -7.23925,3.58826 -7.23925,1.02186 0,-0.99273 -0.78415,-2.45576 -1.74256,-3.25117 -2.73561,-2.27036 -5.75744,1.65524 -5.75744,7.47938 0,4.77891 0.11743,4.91071 4.375,4.91071 3.05555,0 4.375,0.56548 4.375,1.875 0,1.30952 -1.31945,1.875 -4.375,1.875 l -4.375,0 0,15 0,15 -3.75,0 -3.75,0 0,-15 z"
       style="fill:#e37000;fill-opacity:1" />
  </g>
</svg>
